<?xml version="1.0" standalone="no"?><!DOCTYPE svg PUBLIC "-//W3C//DTD SVG 1.1//EN" "http://www.w3.org/Graphics/SVG/1.1/DTD/svg11.dtd"><svg width="1176.1px" height="1951.02px"
		style="transform-origin: 0px 0px 0px;" version="1.1"
		xmlns="http://www.w3.org/2000/svg" xmlns:xlink="http://www.w3.org/1999/xlink"><defs><style xmlns="http://www.w3.org/2000/svg" type="text/css"><![CDATA[
		* {
			text-rendering: geometricprecision !important;
		}
		]]><![CDATA[@font-face {
  font-family: 'Noto Sans';
  font-style: normal;
  font-weight: 400;
  src: local('Noto Sans'), local('NotoSans'), url("https://mirostatic.com/app/static/a73798e3d459e1bc.woff2") format('woff2');
}
@font-face {
  font-family: 'Noto Sans';
  font-style: italic;
  font-weight: 400;
  src: local('Noto Sans Italic'), local('NotoSans-Italic'), url("https://mirostatic.com/app/static/a8edd710f88715d4.woff2") format('woff2');
}
@font-face {
  font-family: 'Noto Sans';
  font-style: normal;
  font-weight: 500;
  src: local('Noto Sans Medium'), local('NotoSans-Medium'), url("https://mirostatic.com/app/static/006d7e33e60b9e12.woff2") format('woff2');
}
@font-face {
  font-family: 'Noto Sans';
  font-style: italic;
  font-weight: 500;
  src: local('Noto Sans Medium Italic'), local('NotoSans-MediumItalic'), url("https://mirostatic.com/app/static/31387059566a3171.woff2") format('woff2');
}
@font-face {
  font-family: 'Noto Sans';
  font-style: normal;
  font-weight: 600;
  src: local('Noto Sans SemiBold'), local('NotoSans-SemiBold'), url("https://mirostatic.com/app/static/526dd53b40975c37.woff2") format('woff2');
}
@font-face {
  font-family: 'Noto Sans';
  font-style: italic;
  font-weight: 600;
  src: local('Noto Sans SemiBold Italic'), local('NotoSans-SemiBoldItalic'), url("https://mirostatic.com/app/static/e73d4fdd87d7e319.woff2") format('woff2');
}
@font-face {
  font-family: 'Noto Sans';
  font-style: normal;
  font-weight: 700;
  src: local('Noto Sans Bold'), local('NotoSans-Bold'), url("https://mirostatic.com/app/static/9f11d6779c14d2bc.woff2") format('woff2');
}
@font-face {
  font-family: 'Noto Sans';
  font-style: italic;
  font-weight: 700;
  src: local('Noto Sans Bold Italic'), local('NotoSans-BoldItalic'), url("https://mirostatic.com/app/static/888e13e017cedc15.woff2") format('woff2');
}
]]><![CDATA[@font-face {
  font-family: 'OpenSans';
  font-style: normal;
  font-weight: 300;
  font-display: swap;
  src: url("https://mirostatic.com/app/static/800985e1502d12bf.woff2") format('woff2');
}
@font-face {
  font-family: 'OpenSans';
  font-style: normal;
  font-weight: 400;
  font-display: swap;
  src: url("https://mirostatic.com/app/static/d8a7ca42a20caea5.woff2") format('woff2');
}
@font-face {
  font-family: 'OpenSans';
  font-style: italic;
  font-weight: 400;
  font-display: swap;
  src: url("https://mirostatic.com/app/static/3cc74c1d3919bd5c.woff2") format('woff2');
}
@font-face {
  font-family: 'OpenSans';
  font-style: normal;
  font-weight: 600;
  font-display: swap;
  src: url("https://mirostatic.com/app/static/f0481285dc248cf0.woff2") format('woff2');
}
@font-face {
  font-family: 'OpenSans';
  font-style: normal;
  font-weight: 700;
  font-display: swap;
  src: url("https://mirostatic.com/app/static/2f5e8dcf6e47bf00.woff2") format('woff2');
}
@font-face {
  font-family: 'OpenSans';
  font-style: italic;
  font-weight: 700;
  font-display: swap;
  src: url("https://mirostatic.com/app/static/0e625f45b71a26f1.woff2") format('woff2');
}
@font-face {
  font-family: 'OpenSans';
  font-style: normal;
  font-weight: 800;
  font-display: swap;
  src: url("https://mirostatic.com/app/static/645c27eb7d93eca8.woff2") format('woff2');
}
]]><![CDATA[@font-face {
  font-family: 'Noto Sans Hebrew';
  font-style: normal;
  font-weight: 400;
  src: local('Noto Sans Hebrew Regular'), local('Noto Sans Hebrew-Regular'), url("https://mirostatic.com/app/static/7ebe1dcf0343326c.woff2") format('woff2'), url("https://mirostatic.com/app/static/6c11f037d6968262.woff") format('woff');
}
@font-face {
  font-family: 'Noto Sans Hebrew';
  font-style: normal;
  font-weight: 700;
  src: local('Noto Sans Hebrew Bold'), local('Noto Sans Hebrew-Bold'), url("https://mirostatic.com/app/static/d2883e2f177d0dad.woff2") format('woff2'), url("https://mirostatic.com/app/static/8546991909eadbc9.woff") format('woff');
}
]]><![CDATA[@font-face {
  font-family: 'Noto Sans JP';
  font-style: normal;
  font-weight: 400;
  src: local('Noto Sans Japanese Regular'), local('Noto Sans Japanese-Regular'), url("https://mirostatic.com/app/static/9320b3c07ab79383.woff2") format('woff2'), url("https://mirostatic.com/app/static/a43be2cbcfc0b250.woff") format('woff');
}
@font-face {
  font-family: 'Noto Sans JP';
  font-style: normal;
  font-weight: 700;
  src: local('Noto Sans Japanese Bold'), local('Noto Sans Japanese-Bold'), url("https://mirostatic.com/app/static/7ab032c73212439f.woff2") format('woff2'), url("https://mirostatic.com/app/static/29f177f4466bd7a1.woff") format('woff');
}
]]><![CDATA[@font-face {
  font-family: 'Noto Sans KR';
  font-style: normal;
  font-weight: 400;
  src: local(''), url("https://mirostatic.com/app/static/7a5b625774730d22.woff2") format('woff2'), url("https://mirostatic.com/app/static/2d84dc606f1fb88e.woff") format('woff');
}
@font-face {
  font-family: 'Noto Sans KR';
  font-style: normal;
  font-weight: 700;
  src: local(''), url("https://mirostatic.com/app/static/fa5a3d9073cdd58f.woff2") format('woff2'), url("https://mirostatic.com/app/static/7ded243557c83342.woff") format('woff');
}
]]></style><path id="LineHeadArrow2" d="M-12.727272727272727,-7.545454545454545 L0,0 L-12.727272727272727,7.545454545454545 Z"></path><filter x="-50%" y="-50%" width="200%" height="200%" id="StickerShadowFilter">
				<feOffset result="offOut" in="SourceGraphic" dx="1" dy="3" />
      			<feGaussianBlur result="blurOut" in="offOut" stdDeviation="3" />
			</filter><path id="StickerType2Path" d="M.01 1C.004.45.444.005 1.01.01l410.98 3.98c.558.006 1.015.46 1.02 1.017l3.98 396.986c.005.556-.434 1.007-1 1.007H5.01c-.558 0-1.015-.455-1.02-1L.01 1z"/><g id="StickerType2" fill-rule="evenodd">
					<path d="M.01 1C.004.45.444.005 1.01.01l410.98 3.98c.558.006 1.015.46 1.02 1.017l3.98 396.986c.005.556-.434 1.007-1 1.007H5.01c-.558 0-1.015-.455-1.02-1L.01 1z" fill-opacity=".12" fill="#000" filter="url(#StickerShadowFilter)" transform="translate(1, 3)" />
					<g><use fill="inherit" xlink:href="#StickerType2Path"/></g>
				</g></defs><rect id="svg-board-background-color" width="100%" height="100%" fill="#f2f2f2"></rect><g width="160px" height="100px"  transform="translate(457.27, 77) scale(1) rotate(0, 80, 50)"><g><g style="stroke: #1a1a1a;stroke-width: 2;stroke-opacity: 1;stroke-dasharray: none;stroke-linecap: round;stroke-linejoin: round;fill: #ffffff;fill-opacity: 1"><rect x="0" y="0" width="160" height="100" rx="49" /></g></g><g><g style="stroke: #1a1a1a;stroke-width: 2;stroke-opacity: 1;stroke-dasharray: none;stroke-linecap: round;stroke-linejoin: round;fill: transparent;fill-opacity: 0"></g></g><g transform="translate(16, 16)"><text xml:space="preserve" x="33.529029846191406" y="28" width="64.58193969726562" textLength="64.58193969726562" lengthAdjust="spacingAndGlyphs" letter-spacing="0" font-family='"Noto Sans", Helvetica, OpenSans, Arial, sans-serif, Noto Sans Hebrew, Noto Sans, Noto Sans JP, Noto Sans KR' font-size="14" 
				fill="#333333" direction="ltr" >Generate </text><text xml:space="preserve" x="28.34203338623047" y="48" width="71.31593322753906" textLength="71.31593322753906" lengthAdjust="spacingAndGlyphs" letter-spacing="0" font-family='"Noto Sans", Helvetica, OpenSans, Arial, sans-serif, Noto Sans Hebrew, Noto Sans, Noto Sans JP, Noto Sans KR' font-size="14" 
				fill="#333333" direction="ltr" >Codename</text></g></g><g width="160px" height="112.8px"  transform="translate(457.27, 244.22) scale(1) rotate(0, 80, 56.4)"><g><g style="stroke: #1a1a1a;stroke-width: 2;stroke-opacity: 1;stroke-dasharray: none;stroke-linecap: round;stroke-linejoin: round;fill: #ffffff;fill-opacity: 1"><rect x="0" y="0" width="160" height="112.80237522216434" rx="8" /></g></g><g><g style="stroke: #1a1a1a;stroke-width: 2;stroke-opacity: 1;stroke-dasharray: none;stroke-linecap: round;stroke-linejoin: round;fill: transparent;fill-opacity: 0"></g></g><g transform="translate(16, 16)"><text xml:space="preserve" x="8.945053100585938" y="34.40118761108217" width="113.74989318847656" textLength="113.74989318847656" lengthAdjust="spacingAndGlyphs" letter-spacing="0" font-family='"Noto Sans", Helvetica, OpenSans, Arial, sans-serif, Noto Sans Hebrew, Noto Sans, Noto Sans JP, Noto Sans KR' font-size="14" 
				fill="#333333" direction="ltr" >Convert name to </text><text xml:space="preserve" x="29.77703857421875" y="54.40118761108217" width="68.4459228515625" textLength="68.4459228515625" lengthAdjust="spacingAndGlyphs" letter-spacing="0" font-family='"Noto Sans", Helvetica, OpenSans, Arial, sans-serif, Noto Sans Hebrew, Noto Sans, Noto Sans JP, Noto Sans KR' font-size="14" 
				fill="#333333" direction="ltr" >uppercase</text></g></g><g width="0px" height="67.22px"  transform="translate(537.27, 177) scale(1) rotate(0, 0, 33.61)"><path stroke-linecap="butt" 
			stroke="#333333" stroke-width="2" fill="transparent"
			d="M 0 0 L 0 57.0421344683378" /> <use xlink:href="#LineHeadArrow2" fill="#333333"
			 transform="translate(0, 67.2239526501562)  rotate(90) "  /> </g><g width="150.4px" height="112.8px"  transform="translate(462.07, 424.25) scale(1) rotate(0, 75.2, 56.4)"><g><g style="stroke: #1a1a1a;stroke-width: 2;stroke-opacity: 1;stroke-dasharray: none;stroke-linecap: round;stroke-linejoin: round;fill: #ffffff;fill-opacity: 1"><rect x="0" y="0" width="150.4031669628858" height="112.80237522216434" rx="8" /></g></g><g><g style="stroke: #1a1a1a;stroke-width: 2;stroke-opacity: 1;stroke-dasharray: none;stroke-linecap: round;stroke-linejoin: round;fill: transparent;fill-opacity: 0"></g></g><g transform="translate(16, 16)"><text xml:space="preserve" x="0.39464531005617687" y="34.40118761108217" width="117.61387634277344" textLength="117.61387634277344" lengthAdjust="spacingAndGlyphs" letter-spacing="0" font-family='"Noto Sans", Helvetica, OpenSans, Arial, sans-serif, Noto Sans Hebrew, Noto Sans, Noto Sans JP, Noto Sans KR' font-size="14" 
				fill="#333333" direction="ltr" >Scan letter one by</text><text xml:space="preserve" x="46.69259605468508" y="54.40118761108217" width="25.017974853515625" textLength="25.017974853515625" lengthAdjust="spacingAndGlyphs" letter-spacing="0" font-family='"Noto Sans", Helvetica, OpenSans, Arial, sans-serif, Noto Sans Hebrew, Noto Sans, Noto Sans JP, Noto Sans KR' font-size="14" 
				fill="#333333" direction="ltr" >one</text></g></g><g width="0px" height="67.22px"  transform="translate(537.27, 357.03) scale(1) rotate(0, 0, 33.61)"><path stroke-linecap="butt" 
			stroke="#333333" stroke-width="2" fill="transparent"
			d="M 0 0 L 0 57.0421344683378" /> <use xlink:href="#LineHeadArrow2" fill="#333333"
			 transform="translate(0, 67.22395265015598)  rotate(90) "  /> </g><g width="188px" height="112.8px"  transform="translate(310.48, 604.15) scale(1) rotate(0, 94, 56.4)"><g><g style="stroke: #1a1a1a;stroke-width: 2;stroke-opacity: 1;stroke-dasharray: none;stroke-linecap: round;stroke-linejoin: round;fill: #ffffff;fill-opacity: 1"><path d="M 47.00098967590181 28.200593805541086 L89.88601330838341,2.469579626052128A8,8,0,0,1,98.11794539522384,2.469579626052128 L176.57071969410666,49.541244205381815A8,8,0,0,1,176.57071969410666,63.26113101678253 L98.11794539522384,110.33279559611222A8,8,0,0,1,89.88601330838341,110.33279559611222 L11.433239009500591,63.26113101678253A8,8,0,0,1,11.433239009500591,49.541244205381815 Z Z"/></g></g><g><g style="stroke: #1a1a1a;stroke-width: 2;stroke-opacity: 1;stroke-dasharray: none;stroke-linecap: round;stroke-linejoin: round;fill: #ffffff;fill-opacity: 1"></g></g><g transform="translate(47.00098967590181, 28.200593805541086)"><text xml:space="preserve" x="20.513013601683063" y="14" width="56.61595153808594" textLength="56.61595153808594" lengthAdjust="spacingAndGlyphs" letter-spacing="0" font-family='"Noto Sans", Helvetica, OpenSans, Arial, sans-serif, Noto Sans Hebrew, Noto Sans, Noto Sans JP, Noto Sans KR' font-size="14" 
				fill="#333333" direction="ltr" >Letter is </text><text xml:space="preserve" x="0.17104125060884456" y="34" width="93.65989685058594" textLength="93.65989685058594" lengthAdjust="spacingAndGlyphs" letter-spacing="0" font-family='"Noto Sans", Helvetica, OpenSans, Arial, sans-serif, Noto Sans Hebrew, Noto Sans, Noto Sans JP, Noto Sans KR' font-size="14" 
				fill="#333333" direction="ltr" >A/O/E/B/I/Z/S/</text><text xml:space="preserve" x="39.930997610472126" y="54" width="14.139984130859375" textLength="14.139984130859375" lengthAdjust="spacingAndGlyphs" letter-spacing="0" font-family='"Noto Sans", Helvetica, OpenSans, Arial, sans-serif, Noto Sans Hebrew, Noto Sans, Noto Sans JP, Noto Sans KR' font-size="14" 
				fill="#333333" direction="ltr" >T?</text></g></g><g width="132.79px" height="67.1px"  transform="translate(404.48, 537.05) scale(1) rotate(0, 66.395, 33.55)"><path stroke-linecap="butt" 
			stroke="#333333" stroke-width="2" fill="transparent"
			d="M 132.79350524815527 0 L 132.79350524815527 25.549406194458925 Q 132.79350524815527 33.549406194458925 124.79350524815527 33.549406194458925 L 8 33.549406194458925 Q 0 33.549406194458925 0 41.549406194458925 L 0 56.91699420709967" /> <use xlink:href="#LineHeadArrow2" fill="#333333"
			 transform="translate(0, 67.09881238891785)  rotate(90) "  /> </g><g width="188px" height="112.8px"  transform="translate(443.27, 784.3) scale(1) rotate(0, 94, 56.4)"><g><g style="stroke: #1a1a1a;stroke-width: 2;stroke-opacity: 1;stroke-dasharray: none;stroke-linecap: round;stroke-linejoin: round;fill: #ffffff;fill-opacity: 1"><path d="M 47.00098967590181 28.200593805541086 L89.88601330838341,2.469579626052128A8,8,0,0,1,98.11794539522384,2.469579626052128 L176.57071969410666,49.541244205381815A8,8,0,0,1,176.57071969410666,63.26113101678253 L98.11794539522384,110.33279559611222A8,8,0,0,1,89.88601330838341,110.33279559611222 L11.433239009500591,63.26113101678253A8,8,0,0,1,11.433239009500591,49.541244205381815 Z Z"/></g></g><g><g style="stroke: #1a1a1a;stroke-width: 2;stroke-opacity: 1;stroke-dasharray: none;stroke-linecap: round;stroke-linejoin: round;fill: transparent;fill-opacity: 0"></g></g><g transform="translate(47.00098967590181, 28.200593805541086)"><text xml:space="preserve" x="3.8600289825424383" y="32.20059380554109" width="86.28192138671875" textLength="86.28192138671875" lengthAdjust="spacingAndGlyphs" letter-spacing="0" font-family='"Noto Sans", Helvetica, OpenSans, Arial, sans-serif, Noto Sans Hebrew, Noto Sans, Noto Sans JP, Noto Sans KR' font-size="14" 
				fill="#333333" direction="ltr" >More letters?</text></g></g><g width="166.8px" height="360.05px"  transform="translate(612.48, 480.65) scale(1) rotate(0, 83.4, 180.025)"><path stroke-linecap="butt" 
			stroke="#333333" stroke-width="2" fill="transparent"
			d="M 18.800395870360717 360.05265574464056 L 158.80281718440438 360.05265574464056 Q 166.80281718440438 360.05265574464056 166.80281718440438 352.05265574464056 L 166.80281718440438 8 Q 166.80281718440438 0 158.80281718440438 0 L 10.181818181818182 0" clip-path="url(#LineHeadMaskuuFzbi)"/> <use xlink:href="#LineHeadArrow2" fill="#333333"
			 transform="translate(0, 0)  rotate(180) "  /> <clipPath id="LineHeadMaskuuFzbi">
				<path d="M -2 -2 M 75.72222834053971 348.05265574464056 L 100.72222834053971 348.05265574464056 L 100.72222834053971 370.05265574464056 L 75.72222834053971 370.05265574464056 M -2 -2 L 1176.1 -2 L 1176.1 1951.02 L -2 1951.02" fill-rule="evenodd" clip-rule="evenodd" />
			</clipPath><g width="23" height="20" transform="translate(77.72222834053971, 350.05265574464056) scale(1) rotate(0)"><text xml:space="preserve" x="0.587005615234375" y="14" width="21.82598876953125" textLength="21.82598876953125" lengthAdjust="spacingAndGlyphs" letter-spacing="0" font-family='"Noto Sans", Helvetica, OpenSans, Arial, sans-serif, Noto Sans Hebrew, Noto Sans, Noto Sans JP, Noto Sans KR' font-size="14" 
				fill="#333333" direction="ltr" >Yes</text></g></g><g width="162.79px" height="180.15px"  transform="translate(280.48, 660.55) scale(1) rotate(0, 81.395, 90.075)"><path stroke-linecap="butt" 
			stroke="#333333" stroke-width="2" fill="transparent"
			d="M 30 0 L 8 0 Q 0 0 0 8 L 0 172.1514681335584 Q 0 180.1514681335584 8 180.1514681335584 L 152.61168706633708 180.1514681335584" clip-path="url(#LineHeadMaskE9OyOD)"/> <use xlink:href="#LineHeadArrow2" fill="#333333"
			 transform="translate(162.79350524815527, 180.1514681335584)  rotate(0) "  /> <clipPath id="LineHeadMaskE9OyOD">
				<path d="M -2 -2 M -2 74.14366704490514 L 10 74.14366704490514 L 10 96.14366704490514 L -2 96.14366704490514 M -2 -2 L 1176.1 -2 L 1176.1 1951.02 L -2 1951.02" fill-rule="evenodd" clip-rule="evenodd" />
			</clipPath><g width="20" height="20" transform="translate(-10, 76.14366704490514) scale(1) rotate(0)"><text xml:space="preserve" x="0.44500732421875" y="14" width="19.1099853515625" textLength="19.1099853515625" lengthAdjust="spacingAndGlyphs" letter-spacing="0" font-family='"Noto Sans", Helvetica, OpenSans, Arial, sans-serif, Noto Sans Hebrew, Noto Sans, Noto Sans JP, Noto Sans KR' font-size="14" 
				fill="#333333" direction="ltr" >No</text></g></g><g width="150.4px" height="112.8px"  transform="translate(588.72, 604.05) scale(1) rotate(0, 75.2, 56.4)"><g><g style="stroke: #1a1a1a;stroke-width: 2;stroke-opacity: 1;stroke-dasharray: none;stroke-linecap: round;stroke-linejoin: round;fill: #ffffff;fill-opacity: 1"><rect x="0" y="0" width="150.4031669628858" height="112.80237522216434" rx="8" /></g></g><g><g style="stroke: #1a1a1a;stroke-width: 2;stroke-opacity: 1;stroke-dasharray: none;stroke-linecap: round;stroke-linejoin: round;fill: #ffffff;fill-opacity: 1"></g></g><g transform="translate(16, 16)"><text xml:space="preserve" x="17.572623825681177" y="34.40118761108217" width="86.89791870117188" textLength="86.89791870117188" lengthAdjust="spacingAndGlyphs" letter-spacing="0" font-family='"Noto Sans", Helvetica, OpenSans, Arial, sans-serif, Noto Sans Hebrew, Noto Sans, Noto Sans JP, Noto Sans KR' font-size="14" 
				fill="#333333" direction="ltr" >Replace with </text><text xml:space="preserve" x="32.86060295165774" y="54.40118761108217" width="52.68196105957031" textLength="52.68196105957031" lengthAdjust="spacingAndGlyphs" letter-spacing="0" font-family='"Noto Sans", Helvetica, OpenSans, Arial, sans-serif, Noto Sans Hebrew, Noto Sans, Noto Sans JP, Noto Sans KR' font-size="14" 
				fill="#333333" direction="ltr" >number</text></g></g><g width="90.24px" height="0.1px"  transform="translate(498.48, 660.45) scale(1) rotate(0, 45.12, 0.05)"><path stroke-linecap="butt" 
			stroke="#333333" stroke-width="2" fill="transparent"
			d="M 0 0.0988123889178496 L 45.07027984483716 0.0988123889178496 Q 45.119686039296084 0.0988123889178496 45.119686039296084 0.0494061944589248 L 45.119686039296084 0.0494061944589248 Q 45.119686039296084 0 45.16909223375501 0 L 80.05755389677353 0" clip-path="url(#LineHeadMaskNGX8sg)"/> <use xlink:href="#LineHeadArrow2" fill="#333333"
			 transform="translate(90.23937207859126, 0)  rotate(0) "  /> <clipPath id="LineHeadMaskNGX8sg">
				<path d="M -2 -2 M 26.17550496571043 -2 L 51.17550496571043 -2 L 51.17550496571043 10.09881238891785 L 26.17550496571043 10.09881238891785 M -2 -2 L 1176.1 -2 L 1176.1 1951.02 L -2 1951.02" fill-rule="evenodd" clip-rule="evenodd" />
			</clipPath><g width="23" height="20" transform="translate(28.17550496571043, -9.90118761108215) scale(1) rotate(0)"><text xml:space="preserve" x="0.587005615234375" y="14" width="21.82598876953125" textLength="21.82598876953125" lengthAdjust="spacingAndGlyphs" letter-spacing="0" font-family='"Noto Sans", Helvetica, OpenSans, Arial, sans-serif, Noto Sans Hebrew, Noto Sans, Noto Sans JP, Noto Sans KR' font-size="14" 
				fill="#333333" direction="ltr" >Yes</text></g></g><use xlink:href="#StickerType2" transform="translate(829.85, 197.68) scale(1.2588931183644008) rotate(0, 99.5, 114) scale(0.44, 0.46)" fill="#fff79e"/><g width="199px" height="228px"  transform="translate(816, 186.35) scale(1.2588931183644008) rotate(0, 99.5, 114)"><g transform="translate(24, 22)"><text xml:space="preserve" x="60.83000946044922" y="22" width="29.339981079101562" textLength="29.339981079101562" lengthAdjust="spacingAndGlyphs" letter-spacing="0" font-family='"Noto Sans", Helvetica, OpenSans, Arial, sans-serif, Noto Sans Hebrew, Noto Sans, Noto Sans JP, Noto Sans KR' font-size="12" 
				fill="#1a1a1a" direction="ltr" >O = 0</text><text xml:space="preserve" x="63.48200988769531" y="39" width="24.035980224609375" textLength="24.035980224609375" lengthAdjust="spacingAndGlyphs" letter-spacing="0" font-family='"Noto Sans", Helvetica, OpenSans, Arial, sans-serif, Noto Sans Hebrew, Noto Sans, Noto Sans JP, Noto Sans KR' font-size="12" 
				fill="#1a1a1a" direction="ltr" >I = 1</text><text xml:space="preserve" x="62.084007263183594" y="56" width="26.831985473632812" textLength="26.831985473632812" lengthAdjust="spacingAndGlyphs" letter-spacing="0" font-family='"Noto Sans", Helvetica, OpenSans, Arial, sans-serif, Noto Sans Hebrew, Noto Sans, Noto Sans JP, Noto Sans KR' font-size="12" 
				fill="#1a1a1a" direction="ltr" >Z = 2</text><text xml:space="preserve" x="62.18000793457031" y="73" width="26.639984130859375" textLength="26.639984130859375" lengthAdjust="spacingAndGlyphs" letter-spacing="0" font-family='"Noto Sans", Helvetica, OpenSans, Arial, sans-serif, Noto Sans Hebrew, Noto Sans, Noto Sans JP, Noto Sans KR' font-size="12" 
				fill="#1a1a1a" direction="ltr" >E = 3</text><text xml:space="preserve" x="61.6820068359375" y="90" width="27.635986328125" textLength="27.635986328125" lengthAdjust="spacingAndGlyphs" letter-spacing="0" font-family='"Noto Sans", Helvetica, OpenSans, Arial, sans-serif, Noto Sans Hebrew, Noto Sans, Noto Sans JP, Noto Sans KR' font-size="12" 
				fill="#1a1a1a" direction="ltr" >A = 4</text><text xml:space="preserve" x="62.222007751464844" y="107" width="26.555984497070312" textLength="26.555984497070312" lengthAdjust="spacingAndGlyphs" letter-spacing="0" font-family='"Noto Sans", Helvetica, OpenSans, Arial, sans-serif, Noto Sans Hebrew, Noto Sans, Noto Sans JP, Noto Sans KR' font-size="12" 
				fill="#1a1a1a" direction="ltr" >S = 5</text><text xml:space="preserve" x="62.18000793457031" y="124" width="26.639984130859375" textLength="26.639984130859375" lengthAdjust="spacingAndGlyphs" letter-spacing="0" font-family='"Noto Sans", Helvetica, OpenSans, Arial, sans-serif, Noto Sans Hebrew, Noto Sans, Noto Sans JP, Noto Sans KR' font-size="12" 
				fill="#1a1a1a" direction="ltr" >T = 7</text><text xml:space="preserve" x="61.61601257324219" y="141" width="27.767974853515625" textLength="27.767974853515625" lengthAdjust="spacingAndGlyphs" letter-spacing="0" font-family='"Noto Sans", Helvetica, OpenSans, Arial, sans-serif, Noto Sans Hebrew, Noto Sans, Noto Sans JP, Noto Sans KR' font-size="12" 
				fill="#1a1a1a" direction="ltr" >B = 8</text></g></g><g width="126.65px" height="67.45px"  transform="translate(537.27, 716.85) scale(1) rotate(0, 63.325, 33.725)"><path stroke-linecap="butt" 
			stroke="#333333" stroke-width="2" fill="transparent"
			d="M 126.6494296636829 0 L 126.6494296636829 25.72395265015598 Q 126.6494296636829 33.72395265015598 118.6494296636829 33.72395265015598 L 8 33.72395265015598 Q 0 33.72395265015598 0 41.72395265015598 L 0 57.26608711849378" /> <use xlink:href="#LineHeadArrow2" fill="#333333"
			 transform="translate(0, 67.44790530031196)  rotate(90) "  /> </g><g width="150.4px" height="112.8px"  transform="translate(462.07, 964.1) scale(1) rotate(0, 75.2, 56.4)"><g><g style="stroke: #1a1a1a;stroke-width: 2;stroke-opacity: 1;stroke-dasharray: none;stroke-linecap: round;stroke-linejoin: round;fill: #ffffff;fill-opacity: 1"><rect x="0" y="0" width="150.4031669628858" height="112.80237522216434" rx="8" /></g></g><g><g style="stroke: #1a1a1a;stroke-width: 2;stroke-opacity: 1;stroke-dasharray: none;stroke-linecap: round;stroke-linejoin: round;fill: transparent;fill-opacity: 0"></g></g><g transform="translate(16, 16)"><text xml:space="preserve" x="27.155624008786646" y="34.40118761108217" width="67.73191833496094" textLength="67.73191833496094" lengthAdjust="spacingAndGlyphs" letter-spacing="0" font-family='"Noto Sans", Helvetica, OpenSans, Arial, sans-serif, Noto Sans Hebrew, Noto Sans, Noto Sans JP, Noto Sans KR' font-size="14" 
				fill="#333333" direction="ltr" >Extract all </text><text xml:space="preserve" x="32.86060295165774" y="54.40118761108217" width="52.68196105957031" textLength="52.68196105957031" lengthAdjust="spacingAndGlyphs" letter-spacing="0" font-family='"Noto Sans", Helvetica, OpenSans, Arial, sans-serif, Noto Sans Hebrew, Noto Sans, Noto Sans JP, Noto Sans KR' font-size="14" 
				fill="#333333" direction="ltr" >number</text></g></g><g width="0px" height="67px"  transform="translate(537.27, 897.1) scale(1) rotate(0, 0, 33.5)"><path stroke-linecap="butt" 
			stroke="#333333" stroke-width="2" fill="transparent"
			d="M 0 0 L 0 56.81818181818205" clip-path="url(#LineHeadMaskgS2lTo)"/> <use xlink:href="#LineHeadArrow2" fill="#333333"
			 transform="translate(0, 67)  rotate(90) "  /> <clipPath id="LineHeadMaskgS2lTo">
				<path d="M -2 -2 M -2 13.779017874221598 L 10 13.779017874221598 L 10 35.779017874221594 L -2 35.779017874221594 M -2 -2 L 1176.1 -2 L 1176.1 1951.02 L -2 1951.02" fill-rule="evenodd" clip-rule="evenodd" />
			</clipPath><g width="20" height="20" transform="translate(-10, 15.779017874221598) scale(1) rotate(0)"><text xml:space="preserve" x="0.44500732421875" y="14" width="19.1099853515625" textLength="19.1099853515625" lengthAdjust="spacingAndGlyphs" letter-spacing="0" font-family='"Noto Sans", Helvetica, OpenSans, Arial, sans-serif, Noto Sans Hebrew, Noto Sans, Noto Sans JP, Noto Sans KR' font-size="14" 
				fill="#333333" direction="ltr" >No</text></g></g><g width="188px" height="112.8px"  transform="translate(443.27, 1143.91) scale(1) rotate(0, 94, 56.4)"><g><g style="stroke: #1a1a1a;stroke-width: 2;stroke-opacity: 1;stroke-dasharray: none;stroke-linecap: round;stroke-linejoin: round;fill: #ffffff;fill-opacity: 1"><path d="M 47.00098967590181 28.200593805541086 L89.88601330838341,2.469579626052128A8,8,0,0,1,98.11794539522384,2.469579626052128 L176.57071969410666,49.541244205381815A8,8,0,0,1,176.57071969410666,63.26113101678253 L98.11794539522384,110.33279559611222A8,8,0,0,1,89.88601330838341,110.33279559611222 L11.433239009500591,63.26113101678253A8,8,0,0,1,11.433239009500591,49.541244205381815 Z Z"/></g></g><g><g style="stroke: #1a1a1a;stroke-width: 2;stroke-opacity: 1;stroke-dasharray: none;stroke-linecap: round;stroke-linejoin: round;fill: #ffffff;fill-opacity: 1"></g></g><g transform="translate(47.00098967590181, 28.200593805541086)"><text xml:space="preserve" x="9.929021597288532" y="22.200593805541086" width="77.783935546875" textLength="77.783935546875" lengthAdjust="spacingAndGlyphs" letter-spacing="0" font-family='"Noto Sans", Helvetica, OpenSans, Arial, sans-serif, Noto Sans Hebrew, Noto Sans, Noto Sans JP, Noto Sans KR' font-size="14" 
				fill="#333333" direction="ltr" >Less than 3 </text><text xml:space="preserve" x="25.8610208038315" y="42.20059380554109" width="42.279937744140625" textLength="42.279937744140625" lengthAdjust="spacingAndGlyphs" letter-spacing="0" font-family='"Noto Sans", Helvetica, OpenSans, Arial, sans-serif, Noto Sans Hebrew, Noto Sans, Noto Sans JP, Noto Sans KR' font-size="14" 
				fill="#333333" direction="ltr" >digits?</text></g></g><g width="0px" height="67px"  transform="translate(537.27, 1076.91) scale(1) rotate(0, 0, 33.5)"><path stroke-linecap="butt" 
			stroke="#333333" stroke-width="2" fill="transparent"
			d="M 0 0 L 0 56.81818181818182" /> <use xlink:href="#LineHeadArrow2" fill="#333333"
			 transform="translate(0, 67)  rotate(90) "  /> </g><g width="150.4px" height="112.8px"  transform="translate(462.07, 1373.67) scale(1) rotate(0, 75.2, 56.4)"><g><g style="stroke: #1a1a1a;stroke-width: 2;stroke-opacity: 1;stroke-dasharray: none;stroke-linecap: round;stroke-linejoin: round;fill: #ffffff;fill-opacity: 1"><rect x="0" y="0" width="150.4031669628858" height="112.80237522216434" rx="8" /></g></g><g><g style="stroke: #1a1a1a;stroke-width: 2;stroke-opacity: 1;stroke-dasharray: none;stroke-linecap: round;stroke-linejoin: round;fill: #ffffff;fill-opacity: 1"></g></g><g transform="translate(16, 16)"><text xml:space="preserve" x="20.72261009277102" y="34.40118761108217" width="80.59794616699219" textLength="80.59794616699219" lengthAdjust="spacingAndGlyphs" letter-spacing="0" font-family='"Noto Sans", Helvetica, OpenSans, Arial, sans-serif, Noto Sans Hebrew, Noto Sans, Noto Sans JP, Noto Sans KR' font-size="14" 
				fill="#333333" direction="ltr" >Reverse the </text><text xml:space="preserve" x="11.832625961911646" y="54.40118761108217" width="94.7379150390625" textLength="94.7379150390625" lengthAdjust="spacingAndGlyphs" letter-spacing="0" font-family='"Noto Sans", Helvetica, OpenSans, Arial, sans-serif, Noto Sans Hebrew, Noto Sans, Noto Sans JP, Noto Sans KR' font-size="14" 
				fill="#333333" direction="ltr" >number string</text></g></g><g width="150.4px" height="112.8px"  transform="translate(838.08, 1143.91) scale(1) rotate(0, 75.2, 56.4)"><g><g style="stroke: #1a1a1a;stroke-width: 2;stroke-opacity: 1;stroke-dasharray: none;stroke-linecap: round;stroke-linejoin: round;fill: #ffffff;fill-opacity: 1"><rect x="0" y="0" width="150.4031669628858" height="112.80237522216434" rx="8" /></g></g><g><g style="stroke: #1a1a1a;stroke-width: 2;stroke-opacity: 1;stroke-dasharray: none;stroke-linecap: round;stroke-linejoin: round;fill: #ffffff;fill-opacity: 1"></g></g><g transform="translate(16, 16)"><text xml:space="preserve" x="11.461639023435083" y="24.40118761108217" width="99.11988830566406" textLength="99.11988830566406" lengthAdjust="spacingAndGlyphs" letter-spacing="0" font-family='"Noto Sans", Helvetica, OpenSans, Arial, sans-serif, Noto Sans Hebrew, Noto Sans, Noto Sans JP, Noto Sans KR' font-size="14" 
				fill="#333333" direction="ltr" >Pad beginning </text><text xml:space="preserve" x="17.131621933591333" y="44.40118761108217" width="87.77992248535156" textLength="87.77992248535156" lengthAdjust="spacingAndGlyphs" letter-spacing="0" font-family='"Noto Sans", Helvetica, OpenSans, Arial, sans-serif, Noto Sans Hebrew, Noto Sans, Noto Sans JP, Noto Sans KR' font-size="14" 
				fill="#333333" direction="ltr" >with random </text><text xml:space="preserve" x="41.09960899413821" y="64.40118761108218" width="36.203948974609375" textLength="36.203948974609375" lengthAdjust="spacingAndGlyphs" letter-spacing="0" font-family='"Noto Sans", Helvetica, OpenSans, Arial, sans-serif, Noto Sans Hebrew, Noto Sans, Noto Sans JP, Noto Sans KR' font-size="14" 
				fill="#333333" direction="ltr" >digits</text></g></g><g width="206.8px" height="0px"  transform="translate(631.28, 1200.31) scale(1) rotate(0, 103.4, 0)"><path stroke-linecap="butt" 
			stroke="#333333" stroke-width="2" fill="transparent"
			d="M 0 0 L 196.6225363921497 0" clip-path="url(#LineHeadMask71PgjG)"/> <use xlink:href="#LineHeadArrow2" fill="#333333"
			 transform="translate(206.80435457396743, 0)  rotate(0) "  /> <clipPath id="LineHeadMask71PgjG">
				<path d="M -2 -2 M 76.57802676953588 -2 L 101.57802676953588 -2 L 101.57802676953588 10 L 76.57802676953588 10 M -2 -2 L 1176.1 -2 L 1176.1 1951.02 L -2 1951.02" fill-rule="evenodd" clip-rule="evenodd" />
			</clipPath><g width="23" height="20" transform="translate(78.57802676953588, -10) scale(1) rotate(0)"><text xml:space="preserve" x="0.587005615234375" y="14" width="21.82598876953125" textLength="21.82598876953125" lengthAdjust="spacingAndGlyphs" letter-spacing="0" font-family='"Noto Sans", Helvetica, OpenSans, Arial, sans-serif, Noto Sans Hebrew, Noto Sans, Noto Sans JP, Noto Sans KR' font-size="14" 
				fill="#333333" direction="ltr" >Yes</text></g></g><g width="375.42px" height="116.96px"  transform="translate(537.86, 1256.71) scale(1) rotate(0, 187.71, 58.48)"><path stroke-linecap="butt" 
			stroke="#333333" stroke-width="2" fill="transparent"
			d="M 375.41939913850047 0 L 375.41939913850047 50.48236364848526 Q 375.41939913850047 58.48236364848526 367.41939913850047 58.48236364848526 L 8 58.48236364848526 Q 0 58.48236364848526 0 66.48236364848526 L 0 106.78290911515234" /> <use xlink:href="#LineHeadArrow2" fill="#333333"
			 transform="translate(-4.547473508864641e-13, 116.96472729697052)  rotate(90) "  /> </g><g width="0.12px" height="116.96px"  transform="translate(537.27, 1256.71) scale(1) rotate(0, 0.06, 58.48)"><path stroke-linecap="butt" 
			stroke="#333333" stroke-width="2" fill="transparent"
			d="M 0 0 L 0 58.423909084381876 Q 0 58.48236364848526 0.058454564103385565 58.48236364848526 L 0.058454564103385565 58.48236364848526 Q 0.11690912820677113 58.48236364848526 0.11690912820677113 58.54081821258865 L 0.11690912820677113 106.78290911515234" clip-path="url(#LineHeadMask74jzsw)"/> <use xlink:href="#LineHeadArrow2" fill="#333333"
			 transform="translate(0.11690912820677113, 116.96472729697052)  rotate(90) "  /> <clipPath id="LineHeadMask74jzsw">
				<path d="M -2 -2 M -2 17.09688224735733 L 10 17.09688224735733 L 10 39.09688224735733 L -2 39.09688224735733 M -2 -2 L 1176.1 -2 L 1176.1 1951.02 L -2 1951.02" fill-rule="evenodd" clip-rule="evenodd" />
			</clipPath><g width="20" height="20" transform="translate(-10, 19.09688224735733) scale(1) rotate(0)"><text xml:space="preserve" x="0.44500732421875" y="14" width="19.1099853515625" textLength="19.1099853515625" lengthAdjust="spacingAndGlyphs" letter-spacing="0" font-family='"Noto Sans", Helvetica, OpenSans, Arial, sans-serif, Noto Sans Hebrew, Noto Sans, Noto Sans JP, Noto Sans KR' font-size="14" 
				fill="#333333" direction="ltr" >No</text></g></g><g width="150.4px" height="100px"  transform="translate(462.07, 1576.58) scale(1) rotate(0, 75.2, 50)"><g><g style="stroke: #1a1a1a;stroke-width: 2;stroke-opacity: 1;stroke-dasharray: none;stroke-linecap: round;stroke-linejoin: round;fill: #ffffff;fill-opacity: 1"><rect x="0" y="0" width="150.40316696288573" height="100.0000000000002" rx="8" /></g></g><g><g style="stroke: #1a1a1a;stroke-width: 2;stroke-opacity: 1;stroke-dasharray: none;stroke-linecap: round;stroke-linejoin: round;fill: #ffffff;fill-opacity: 1"></g></g><g transform="translate(16, 16)"><text xml:space="preserve" x="4.3636394506811484" y="38.0000000000001" width="109.67588806152344" textLength="109.67588806152344" lengthAdjust="spacingAndGlyphs" letter-spacing="0" font-family='"Noto Sans", Helvetica, OpenSans, Arial, sans-serif, Noto Sans Hebrew, Noto Sans, Noto Sans JP, Noto Sans KR' font-size="14" 
				fill="#333333" direction="ltr" >Return codenam</text></g></g><g width="0px" height="90.1px"  transform="translate(537.27, 1486.48) scale(1) rotate(0, 0, 45.05)"><path stroke-linecap="butt" 
			stroke="#333333" stroke-width="2" fill="transparent"
			d="M 0 0 L 0 79.92285523829179" /> <use xlink:href="#LineHeadArrow2" fill="#333333"
			 transform="translate(0, 90.10467342010998)  rotate(90) "  /> </g><g width="160px" height="100px"  transform="translate(457.27, 1780.87) scale(1) rotate(0, 80, 50)"><g><g style="stroke: #1a1a1a;stroke-width: 2;stroke-opacity: 1;stroke-dasharray: none;stroke-linecap: round;stroke-linejoin: round;fill: #ffffff;fill-opacity: 1"><rect x="0" y="0" width="160" height="100" rx="49" /></g></g><g><g style="stroke: #1a1a1a;stroke-width: 2;stroke-opacity: 1;stroke-dasharray: none;stroke-linecap: round;stroke-linejoin: round;fill: transparent;fill-opacity: 0"></g></g><g transform="translate(16, 16)"><text xml:space="preserve" x="49.678009033203125" y="38" width="28.64398193359375" textLength="28.64398193359375" lengthAdjust="spacingAndGlyphs" letter-spacing="0" font-family='"Noto Sans", Helvetica, OpenSans, Arial, sans-serif, Noto Sans Hebrew, Noto Sans, Noto Sans JP, Noto Sans KR' font-size="14" 
				fill="#333333" direction="ltr" >END</text></g></g><g width="0px" height="104.29px"  transform="translate(537.27, 1676.58) scale(1) rotate(0, 0, 52.145)"><path stroke-linecap="butt" 
			stroke="#333333" stroke-width="2" fill="transparent"
			d="M 0 0 L 0 94.11024043442268" /> <use xlink:href="#LineHeadArrow2" fill="#333333"
			 transform="translate(0, 104.29205861624087)  rotate(90) "  /> </g></svg>